<?xml version="1.0" encoding="utf-8"?>
<!-- Generator: Adobe Illustrator 24.3.0, SVG Export Plug-In . SVG Version: 6.00 Build 0)  -->
<svg version="1.1" xmlns="http://www.w3.org/2000/svg" xmlns:xlink="http://www.w3.org/1999/xlink" x="0px" y="0px"
	 viewBox="0 0 112.45 113.38" style="enable-background:new 0 0 112.45 113.38;" xml:space="preserve">
<style type="text/css">
	.st0{display:none;}
	.st1{fill:#004E9A;}
</style>
<g id="Layer_1" class="st0">
</g>
<g id="Layer_2">
	<g>
		<g id="XMLID_3_">
			<g>
				<path class="st1" d="M20.68,69.6h71.53c-2.79,11.62-20.83,10-28.71,7.88c-37.23-9.76-37.35-2-40.14-2.76
					C22.47,74.1,21.32,72.48,20.68,69.6z"/>
				<path class="st1" d="M58.17,78.6c6.02,1.48,17.21,5.27,28.11,0.34c-3.69,13.16-24.72,5.9-29.25,4.66
					c-24.08-7.39-26.58-3.56-29.51-2.54c-1.76-1.85-2.27-2.23-3.39-4.58C28.31,75.48,31.36,72.48,58.17,78.6z"/>
				<path class="st1" d="M52.83,84.85c2.83,0.61,14.58,5.89,22.93,4.07c-6.31,6.45-20.06,1.05-24.58-0.07
					c-15.62-4.5-16.64-3.25-18.54-2.75l-0.33,0.31l-3.5-3.56C31.23,81.35,35.55,80.35,52.83,84.85z"/>
				<path class="st1" d="M63.63,94.08v0.02c-13.51,2.87-25.96-3.53-27.77-5.73C40.94,85.23,50.94,93.5,63.63,94.08z"/>
			</g>
		</g>
		<g>
			<g>
				<path class="st1" d="M20.62,67.34V47.89h7.25l4.35,13.27l4.31-13.27h7.27v19.45h-4.5V52.03l-4.76,15.31h-4.66l-4.75-15.31v15.31
					H20.62z"/>
			</g>
			<g>
				<path class="st1" d="M48.63,67.34V47.89h10.2c2.56,0,4.43,0.17,5.59,0.52c1.16,0.35,2.09,0.97,2.79,1.86
					c0.7,0.89,1.05,1.92,1.05,3.06c0,1.46-0.53,2.66-1.59,3.62c-1.06,0.95-2.64,1.55-4.75,1.8c1.05,0.5,1.91,1.04,2.59,1.63
					c0.68,0.59,1.6,1.65,2.76,3.16l2.93,3.79h-5.8l-3.5-4.23c-1.24-1.51-2.1-2.47-2.55-2.86c-0.46-0.39-0.94-0.66-1.46-0.81
					c-0.51-0.15-1.33-0.22-2.44-0.22h-0.98v8.12H48.63z M53.48,56.12h3.58c2.32,0,3.78-0.08,4.35-0.24
					c0.58-0.16,1.03-0.43,1.36-0.82c0.33-0.39,0.49-0.88,0.49-1.46c0-0.65-0.22-1.18-0.65-1.59c-0.43-0.4-1.04-0.66-1.83-0.76
					c-0.39-0.04-1.57-0.07-3.54-0.07h-3.78V56.12z"/>
			</g>
			<g>
				<path class="st1" d="M88.18,60.19l4.7,1.21c-0.72,2.12-1.92,3.7-3.59,4.73c-1.68,1.03-3.8,1.55-6.37,1.55
					c-3.19,0-5.81-0.88-7.86-2.65c-2.05-1.76-3.08-4.18-3.08-7.24c0-3.24,1.03-5.75,3.09-7.54c2.06-1.79,4.77-2.69,8.13-2.69
					c2.94,0,5.32,0.7,7.15,2.11c1.09,0.83,1.91,2.03,2.45,3.58l-4.8,0.93c-0.28-1.01-0.88-1.8-1.78-2.39
					c-0.9-0.58-1.99-0.88-3.28-0.88c-1.78,0-3.22,0.52-4.33,1.55c-1.11,1.03-1.66,2.71-1.66,5.03c0,2.46,0.55,4.21,1.64,5.25
					c1.09,1.04,2.51,1.57,4.26,1.57c1.29,0,2.39-0.33,3.32-1C87.11,62.66,87.77,61.62,88.18,60.19z"/>
			</g>
		</g>
		<g>
			<rect x="20.56" y="44.35" class="st1" width="71.4" height="1"/>
		</g>
		<g>
			<rect x="55.62" y="24.22" class="st1" width="1.02" height="20.5"/>
		</g>
		<g>
			<path class="st1" d="M21.49,44.85l-0.96-0.31c6.61-19.6,24.86-25.84,38.49-25.23c16.57,0.74,29.5,10.62,32.96,25.16l-0.99,0.23
				C87.64,30.59,75.07,21.02,58.97,20.3C45.72,19.71,27.92,25.78,21.49,44.85z"/>
		</g>
		<g>
			<path class="st1" d="M56.06,24.92c-3.07,0-6.18-1.22-9.38-3.66l0.62-0.79c6.14,4.68,11.69,4.62,17.47-0.19l0.66,0.76
				C62.32,23.63,59.21,24.92,56.06,24.92z"/>
		</g>
		<g>
			<path class="st1" d="M70.3,44.86l-1.02-0.02c0.18-8.88-2.76-14.58-10.47-20.34l0.61-0.8C67.33,29.6,70.48,35.73,70.3,44.86z"/>
		</g>
		<g>
			<path class="st1" d="M81.42,44.61c-1.29-8.73-7.51-16.11-18.48-21.94l0.48-0.88c11.26,5.99,17.66,13.62,19,22.68L81.42,44.61z"/>
		</g>
		<g>
			<g>
				<path class="st1" d="M41.84,44.86c-0.18-9.13,2.97-15.26,10.87-21.16l0.61,0.8c-7.71,5.76-10.65,11.46-10.47,20.34L41.84,44.86z
					"/>
			</g>
			<g>
				<path class="st1" d="M30.72,44.61l-1.01-0.14c1.34-9.06,7.74-16.69,19-22.68l0.48,0.88C38.23,28.5,32.01,35.88,30.72,44.61z"/>
			</g>
		</g>
		<g>
			<path class="st1" d="M55.88,34.72c-9.12,0-16.56-5.66-19.34-9.46l0.83-0.58c2.66,3.63,9.78,9.04,18.52,9.04V34.72z"/>
		</g>
		<g>
			<path class="st1" d="M56.01,42.41c-9.41,0-24.5-2.94-28.57-9.49l0.87-0.52c3.86,6.22,18.53,9.01,27.71,9.01V42.41z"/>
		</g>
		<g>
			<g>
				<path class="st1" d="M56.33,34.64v-1c9.08,0,16.49-5.47,19.25-9.15l0.82,0.59C73.51,28.93,65.78,34.64,56.33,34.64z"/>
			</g>
			<g>
				<path class="st1" d="M56.2,42.41v-1c9.54,0,24.77-2.83,28.79-9.12l0.86,0.53C81.62,39.44,65.97,42.41,56.2,42.41z"/>
			</g>
		</g>
		<g>
			<g>
				<path class="st1" d="M12.34,49.86l-6.41-1.32l0.26-1.22l4.85-0.52c0.45-0.05,0.79-0.08,1.01-0.1c-0.22-0.12-0.54-0.3-0.96-0.54
					l-4.15-2.39l0.23-1.09l6.41,1.32l-0.17,0.78l-5.36-1.1l4.99,2.89l-0.15,0.73l-5.83,0.65l5.46,1.12L12.34,49.86z"/>
			</g>
			<g>
				<path class="st1" d="M14,42.74l-6.16-2.18l1.56-4.27l0.73,0.26l-1.27,3.49l1.89,0.67l1.19-3.26l0.72,0.26l-1.19,3.26l2.1,0.74
					l1.32-3.62l0.73,0.26L14,42.74z"/>
			</g>
			<g>
				<path class="st1" d="M16.04,37.37l-5.83-2.94l0.39-0.74l2.89,1.46l-1.45-4.23l0.52-1l1.14,3.53l4.74-0.7l-0.51,0.97l-3.98,0.5
					l0.45,1.38l2.02,1.02L16.04,37.37z"/>
			</g>
			<g>
				<path class="st1" d="M16.03,30.61c-0.89-0.62-1.42-1.33-1.59-2.13c-0.17-0.81,0-1.57,0.52-2.29c0.34-0.47,0.76-0.82,1.27-1.03
					c0.51-0.22,1.05-0.28,1.61-0.18c0.56,0.09,1.11,0.33,1.65,0.7c0.54,0.38,0.95,0.82,1.23,1.33c0.28,0.51,0.39,1.03,0.33,1.57
					s-0.24,1.03-0.56,1.47c-0.35,0.48-0.78,0.83-1.29,1.04c-0.52,0.21-1.05,0.27-1.62,0.17C17.02,31.15,16.5,30.94,16.03,30.61z
					 M16.54,29.92c0.64,0.45,1.27,0.64,1.88,0.56c0.61-0.07,1.09-0.36,1.45-0.86c0.37-0.51,0.48-1.06,0.34-1.65
					c-0.14-0.59-0.55-1.12-1.24-1.6c-0.44-0.3-0.87-0.5-1.29-0.58c-0.43-0.08-0.83-0.05-1.2,0.09c-0.37,0.15-0.68,0.39-0.92,0.73
					c-0.34,0.48-0.47,1.01-0.37,1.6C15.29,28.79,15.74,29.36,16.54,29.92z"/>
			</g>
			<g>
				<path class="st1" d="M22.83,26.79l-4.73-4.46l0.6-0.61l6.03,1.12l-3.71-3.5l0.56-0.57l4.73,4.46l-0.6,0.61l-6.03-1.12l3.72,3.5
					L22.83,26.79z"/>
			</g>
			<g>
				<path class="st1" d="M28.06,18.53l-0.47-0.6l2.13-1.63l1.49,1.89c-0.12,0.51-0.3,0.97-0.54,1.37c-0.24,0.4-0.55,0.74-0.91,1.02
					c-0.49,0.38-1.03,0.61-1.6,0.71c-0.57,0.09-1.12,0.02-1.65-0.23c-0.53-0.25-0.99-0.62-1.38-1.12c-0.39-0.5-0.65-1.04-0.79-1.62
					c-0.13-0.59-0.09-1.13,0.13-1.63c0.22-0.5,0.58-0.94,1.08-1.33c0.36-0.28,0.74-0.47,1.13-0.58c0.39-0.11,0.75-0.12,1.08-0.03
					c0.33,0.09,0.68,0.27,1.04,0.54l-0.47,0.63c-0.28-0.2-0.53-0.33-0.76-0.4c-0.23-0.06-0.48-0.06-0.76,0.01
					c-0.28,0.07-0.54,0.2-0.8,0.4c-0.3,0.23-0.53,0.48-0.68,0.74c-0.15,0.26-0.23,0.52-0.25,0.78c-0.01,0.26,0.01,0.51,0.08,0.75
					c0.12,0.41,0.33,0.8,0.62,1.17c0.36,0.45,0.73,0.77,1.13,0.96c0.4,0.19,0.8,0.24,1.21,0.16c0.41-0.08,0.78-0.24,1.12-0.5
					c0.29-0.22,0.53-0.49,0.71-0.81c0.19-0.32,0.3-0.6,0.34-0.84l-0.75-0.95L28.06,18.53z"/>
			</g>
			<g>
				<path class="st1" d="M35.04,16.93l-2.89-5.78l2.53-1.23c0.51-0.25,0.92-0.38,1.24-0.41c0.32-0.02,0.62,0.06,0.91,0.24
					c0.29,0.19,0.52,0.44,0.67,0.76c0.21,0.41,0.25,0.82,0.13,1.23c-0.12,0.41-0.44,0.78-0.95,1.13c0.25,0,0.45,0.02,0.6,0.07
					c0.32,0.1,0.66,0.25,1.01,0.46l1.78,1.09l-0.95,0.46l-1.36-0.84c-0.4-0.24-0.71-0.42-0.94-0.53c-0.24-0.11-0.43-0.18-0.58-0.2
					c-0.15-0.02-0.29-0.01-0.42,0.01c-0.09,0.02-0.24,0.08-0.43,0.18l-0.88,0.43l1.29,2.57L35.04,16.93z M34.18,13.33l1.63-0.79
					c0.35-0.17,0.6-0.33,0.76-0.5c0.16-0.17,0.25-0.35,0.27-0.56c0.02-0.21-0.01-0.41-0.11-0.59c-0.14-0.27-0.35-0.45-0.63-0.53
					c-0.28-0.08-0.64-0.02-1.06,0.19l-1.81,0.88L34.18,13.33z"/>
			</g>
			<g>
				<path class="st1" d="M41.08,14.2l-2.3-6.03l0.79-0.29l2.3,6.03L41.08,14.2z"/>
			</g>
			<g>
				<path class="st1" d="M45.1,12.88l-4.1-5.58l0.88-0.24l2.85,4.09c0.23,0.33,0.43,0.64,0.6,0.93c0-0.36,0.02-0.73,0.05-1.11
					l0.41-4.96l0.83-0.22l-0.69,6.86L45.1,12.88z"/>
			</g>
			<g>
				<path class="st1" d="M49.08,11.9l-0.89-6.38l4.56-0.61l0.1,0.75l-3.73,0.5l0.27,1.95l3.49-0.47L53,8.39l-3.49,0.47l0.3,2.17
					l3.88-0.52l0.1,0.75L49.08,11.9z"/>
			</g>
			<g>
				<path class="st1" d="M54.91,11.19l0.01-6.44l2.83,0c0.57,0,1,0.06,1.3,0.18c0.29,0.12,0.53,0.32,0.71,0.61
					c0.18,0.29,0.26,0.62,0.26,0.97c0,0.46-0.15,0.84-0.44,1.16c-0.29,0.31-0.75,0.51-1.36,0.6c0.22,0.11,0.39,0.22,0.51,0.32
					c0.25,0.23,0.48,0.52,0.7,0.86l1.11,1.75l-1.06,0l-0.84-1.34c-0.25-0.39-0.45-0.68-0.61-0.89c-0.16-0.21-0.3-0.35-0.43-0.43
					c-0.13-0.08-0.25-0.14-0.39-0.17c-0.1-0.02-0.25-0.03-0.47-0.03l-0.98,0l0,2.86L54.91,11.19z M55.76,7.59l1.81,0
					c0.39,0,0.69-0.04,0.91-0.12c0.22-0.08,0.38-0.21,0.5-0.39c0.11-0.18,0.17-0.37,0.17-0.58c0-0.3-0.11-0.56-0.33-0.75
					c-0.22-0.2-0.56-0.3-1.04-0.3l-2.02,0L55.76,7.59z"/>
			</g>
			<g>
				<path class="st1" d="M68.79,10.33l0.78,0.38c-0.32,0.65-0.75,1.11-1.27,1.37c-0.53,0.27-1.12,0.33-1.76,0.19
					c-0.67-0.14-1.19-0.39-1.55-0.76c-0.36-0.36-0.59-0.83-0.7-1.4c-0.11-0.57-0.09-1.16,0.04-1.76c0.14-0.66,0.39-1.2,0.74-1.64
					c0.35-0.44,0.79-0.73,1.3-0.89c0.51-0.16,1.04-0.18,1.59-0.06c0.62,0.13,1.11,0.4,1.47,0.81c0.36,0.41,0.55,0.92,0.59,1.54
					l-0.85,0.02C69.12,7.65,68.99,7.27,68.76,7c-0.23-0.27-0.55-0.44-0.97-0.53c-0.48-0.1-0.91-0.07-1.28,0.1
					C66.14,6.73,65.85,7,65.63,7.36c-0.22,0.36-0.37,0.75-0.46,1.17c-0.12,0.54-0.14,1.02-0.07,1.45c0.07,0.43,0.24,0.78,0.53,1.05
					c0.28,0.27,0.61,0.44,0.99,0.52c0.46,0.1,0.88,0.04,1.26-0.16C68.26,11.19,68.56,10.83,68.79,10.33z"/>
			</g>
			<g>
				<path class="st1" d="M71.31,10.07c0.4-0.99,0.98-1.67,1.73-2.03c0.75-0.36,1.55-0.37,2.38-0.05c0.55,0.21,0.99,0.54,1.32,0.97
					c0.33,0.44,0.52,0.93,0.56,1.5c0.04,0.56-0.06,1.14-0.3,1.74c-0.24,0.61-0.58,1.1-1.02,1.49c-0.44,0.39-0.93,0.61-1.47,0.69
					c-0.54,0.07-1.07,0.01-1.59-0.19c-0.56-0.22-1-0.55-1.33-0.99c-0.33-0.44-0.51-0.94-0.55-1.5C71.01,11.14,71.1,10.6,71.31,10.07
					z M72.12,10.4c-0.29,0.72-0.33,1.37-0.11,1.93c0.22,0.57,0.62,0.96,1.19,1.19c0.59,0.23,1.16,0.21,1.71-0.06
					c0.55-0.27,0.98-0.79,1.29-1.56c0.2-0.49,0.28-0.95,0.27-1.37c-0.02-0.43-0.14-0.8-0.38-1.12c-0.23-0.32-0.55-0.56-0.94-0.71
					c-0.55-0.22-1.11-0.21-1.67,0.02C72.94,8.93,72.48,9.5,72.12,10.4z"/>
			</g>
			<g>
				<path class="st1" d="M76.65,15.61l3.4-5.5l1.08,0.65l-1.12,4.67c-0.11,0.43-0.19,0.76-0.24,0.97c0.19-0.16,0.46-0.4,0.83-0.71
					l3.67-3.05l0.97,0.58l-3.4,5.5l-0.69-0.42L84,13.69l-4.43,3.66l-0.65-0.39l1.32-5.63l-2.9,4.69L76.65,15.61z"/>
			</g>
			<g>
				<path class="st1" d="M83.07,19.61l4.34-4.82l0.95,0.83l-1.94,4.4c-0.18,0.41-0.32,0.71-0.41,0.91c0.21-0.13,0.53-0.31,0.95-0.55
					l4.16-2.36l0.85,0.74l-4.34,4.82l-0.61-0.53l3.63-4.04l-5.02,2.83l-0.57-0.5l2.32-5.31l-3.7,4.11L83.07,19.61z"/>
			</g>
			<g>
				<path class="st1" d="M88.62,24.75l4.86-4.32l0.57,0.62l-4.86,4.32L88.62,24.75z"/>
			</g>
			<g>
				<path class="st1" d="M91.7,24.97l0.54,0.58c-0.24,0.22-0.4,0.45-0.49,0.68c-0.08,0.23-0.09,0.5-0.02,0.81
					c0.07,0.3,0.22,0.6,0.43,0.88c0.19,0.25,0.4,0.45,0.63,0.58c0.23,0.14,0.44,0.2,0.65,0.19c0.21-0.01,0.39-0.07,0.56-0.19
					c0.16-0.12,0.27-0.27,0.32-0.46c0.05-0.18,0.04-0.41-0.04-0.68c-0.05-0.17-0.19-0.54-0.43-1.08c-0.24-0.55-0.38-0.95-0.41-1.21
					c-0.05-0.34-0.03-0.63,0.08-0.9c0.1-0.26,0.28-0.48,0.52-0.66c0.26-0.2,0.56-0.31,0.9-0.33c0.34-0.03,0.67,0.05,1,0.24
					c0.33,0.19,0.62,0.45,0.88,0.79c0.28,0.37,0.47,0.74,0.57,1.12c0.09,0.38,0.08,0.73-0.05,1.06c-0.13,0.33-0.34,0.62-0.63,0.86
					l-0.54-0.6c0.3-0.28,0.46-0.58,0.48-0.9c0.02-0.32-0.12-0.68-0.42-1.06c-0.31-0.4-0.61-0.64-0.9-0.7
					c-0.29-0.07-0.55-0.02-0.77,0.14c-0.19,0.14-0.29,0.32-0.31,0.54c-0.02,0.22,0.11,0.64,0.39,1.27c0.29,0.63,0.46,1.08,0.52,1.35
					c0.08,0.4,0.07,0.74-0.04,1.04c-0.11,0.3-0.3,0.55-0.58,0.76c-0.28,0.21-0.6,0.32-0.96,0.35c-0.36,0.03-0.72-0.05-1.08-0.23
					c-0.36-0.18-0.67-0.46-0.94-0.81c-0.35-0.45-0.57-0.88-0.67-1.29c-0.1-0.41-0.07-0.8,0.07-1.18
					C91.11,25.56,91.36,25.24,91.7,24.97z"/>
			</g>
			<g>
				<path class="st1" d="M95.36,29.85l0.47,0.64c-0.26,0.2-0.45,0.4-0.56,0.63c-0.11,0.22-0.15,0.49-0.11,0.8
					c0.04,0.31,0.14,0.62,0.33,0.93c0.16,0.27,0.35,0.49,0.56,0.65c0.21,0.16,0.42,0.25,0.63,0.26c0.21,0.02,0.4-0.03,0.57-0.13
					c0.18-0.1,0.3-0.24,0.38-0.42c0.07-0.17,0.09-0.4,0.04-0.68c-0.03-0.18-0.13-0.55-0.3-1.12c-0.17-0.57-0.26-0.98-0.27-1.25
					c-0.01-0.34,0.05-0.63,0.18-0.88c0.13-0.25,0.33-0.45,0.59-0.6c0.28-0.16,0.6-0.24,0.94-0.23c0.34,0.01,0.66,0.13,0.97,0.35
					c0.31,0.22,0.57,0.52,0.78,0.88c0.24,0.4,0.38,0.79,0.43,1.18c0.05,0.38-0.01,0.73-0.17,1.05c-0.16,0.32-0.41,0.58-0.73,0.78
					l-0.46-0.65c0.33-0.24,0.53-0.52,0.58-0.84c0.05-0.32-0.04-0.68-0.29-1.1c-0.26-0.43-0.53-0.7-0.81-0.8
					c-0.28-0.1-0.54-0.09-0.78,0.05c-0.2,0.12-0.33,0.28-0.37,0.5c-0.05,0.21,0.03,0.65,0.24,1.31c0.21,0.66,0.33,1.13,0.36,1.4
					c0.04,0.4-0.02,0.75-0.16,1.03c-0.14,0.28-0.37,0.51-0.67,0.69c-0.3,0.17-0.63,0.26-1,0.24c-0.36-0.01-0.71-0.13-1.04-0.35
					c-0.33-0.22-0.61-0.53-0.84-0.91c-0.29-0.49-0.46-0.94-0.51-1.36c-0.05-0.42,0.02-0.81,0.21-1.17
					C94.71,30.37,94.99,30.08,95.36,29.85z"/>
			</g>
			<g>
				<path class="st1" d="M96.71,36.45l5.88-2.83l0.37,0.75l-5.88,2.83L96.71,36.45z"/>
			</g>
			<g>
				<path class="st1" d="M100.67,37.2c1.01-0.39,1.91-0.44,2.69-0.15c0.78,0.3,1.34,0.86,1.67,1.68c0.22,0.54,0.28,1.08,0.18,1.61
					c-0.09,0.54-0.34,1.01-0.72,1.43c-0.39,0.41-0.89,0.74-1.5,0.98c-0.62,0.24-1.22,0.34-1.8,0.29c-0.58-0.05-1.09-0.24-1.51-0.58
					c-0.43-0.34-0.74-0.76-0.95-1.27c-0.22-0.55-0.28-1.09-0.18-1.63c0.1-0.54,0.35-1.01,0.74-1.42
					C99.68,37.71,100.14,37.4,100.67,37.2z M100.98,38c-0.73,0.29-1.23,0.7-1.5,1.24c-0.27,0.54-0.29,1.1-0.06,1.67
					c0.23,0.58,0.64,0.97,1.22,1.18c0.58,0.21,1.26,0.16,2.04-0.15c0.5-0.19,0.9-0.44,1.2-0.75c0.3-0.3,0.5-0.65,0.58-1.04
					c0.08-0.39,0.04-0.77-0.11-1.16c-0.22-0.55-0.61-0.94-1.16-1.18C102.63,37.58,101.9,37.64,100.98,38z"/>
			</g>
			<g>
				<path class="st1" d="M100.29,44.98l6.29-1.79l0.24,0.82l-4.01,4.57l4.94-1.4l0.22,0.76l-6.29,1.79l-0.24-0.82l4.01-4.57
					l-4.94,1.41L100.29,44.98z"/>
			</g>
		</g>
		<g>
			<g>
				<path class="st1" d="M4.4,62.5l6.33-1.65l1.1,4.09l-0.75,0.19l-0.88-3.29l-1.96,0.51L9,65.2L8.25,65.4l-0.76-2.84L4.61,63.3
					L4.4,62.5z"/>
			</g>
			<g>
				<path class="st1" d="M8.72,66.34c1.03-0.35,1.93-0.35,2.69-0.02c0.77,0.33,1.29,0.92,1.59,1.75c0.19,0.55,0.23,1.09,0.11,1.62
					c-0.12,0.53-0.39,1-0.79,1.39c-0.41,0.4-0.92,0.7-1.54,0.91c-0.63,0.21-1.23,0.28-1.81,0.21c-0.58-0.08-1.07-0.29-1.48-0.65
					c-0.41-0.36-0.7-0.8-0.88-1.31c-0.19-0.56-0.23-1.1-0.1-1.64c0.13-0.53,0.4-1,0.81-1.39C7.7,66.81,8.17,66.52,8.72,66.34z
					 M8.99,67.15c-0.75,0.25-1.27,0.64-1.56,1.17c-0.3,0.53-0.34,1.08-0.14,1.66c0.21,0.59,0.59,1,1.16,1.24
					c0.57,0.24,1.25,0.22,2.05-0.05c0.5-0.17,0.92-0.4,1.24-0.69c0.32-0.29,0.53-0.63,0.63-1.01c0.1-0.38,0.08-0.77-0.06-1.16
					c-0.19-0.56-0.56-0.97-1.1-1.23C10.66,66.82,9.92,66.84,8.99,67.15z"/>
			</g>
			<g>
				<path class="st1" d="M8.12,74.08l5.99-2.61l1.14,2.54c0.23,0.51,0.35,0.92,0.36,1.24c0.01,0.31-0.08,0.61-0.28,0.89
					c-0.2,0.28-0.47,0.49-0.79,0.63c-0.42,0.19-0.84,0.21-1.25,0.07c-0.41-0.14-0.78-0.46-1.1-0.98c-0.01,0.24-0.04,0.44-0.09,0.59
					c-0.11,0.31-0.28,0.64-0.51,0.98l-1.18,1.71l-0.43-0.95l0.9-1.3c0.26-0.38,0.45-0.68,0.58-0.91c0.13-0.23,0.2-0.41,0.23-0.56
					c0.02-0.15,0.03-0.29,0-0.42c-0.02-0.09-0.07-0.24-0.16-0.43l-0.4-0.88l-2.66,1.16L8.12,74.08z M11.8,73.38l0.73,1.63
					c0.16,0.35,0.32,0.6,0.48,0.76c0.16,0.16,0.35,0.26,0.56,0.29c0.21,0.03,0.41,0,0.61-0.08c0.28-0.12,0.47-0.32,0.57-0.6
					c0.09-0.28,0.04-0.63-0.15-1.05l-0.82-1.81L11.8,73.38z"/>
			</g>
			<g>
				<path class="st1" d="M13.56,80.6l0.47,0.63c-0.26,0.2-0.44,0.41-0.55,0.63c-0.11,0.22-0.14,0.49-0.1,0.8
					c0.04,0.31,0.15,0.62,0.34,0.92c0.17,0.27,0.36,0.48,0.57,0.64c0.21,0.16,0.42,0.24,0.63,0.26c0.21,0.01,0.4-0.03,0.57-0.13
					c0.18-0.1,0.3-0.24,0.37-0.42c0.07-0.18,0.08-0.4,0.03-0.68c-0.03-0.18-0.13-0.55-0.31-1.12c-0.18-0.57-0.27-0.98-0.29-1.24
					c-0.02-0.34,0.04-0.63,0.17-0.88c0.13-0.25,0.32-0.45,0.58-0.6c0.28-0.17,0.59-0.25,0.93-0.24c0.34,0.01,0.66,0.12,0.97,0.34
					c0.31,0.22,0.57,0.51,0.8,0.87c0.24,0.4,0.39,0.79,0.45,1.17c0.05,0.38,0,0.73-0.16,1.05c-0.16,0.32-0.4,0.58-0.72,0.79
					l-0.47-0.65c0.33-0.25,0.52-0.53,0.57-0.85c0.05-0.32-0.05-0.68-0.3-1.1c-0.26-0.43-0.54-0.69-0.82-0.79
					c-0.28-0.1-0.54-0.08-0.78,0.06c-0.2,0.12-0.32,0.29-0.37,0.5c-0.05,0.21,0.04,0.65,0.26,1.31c0.22,0.66,0.34,1.13,0.37,1.4
					c0.04,0.4-0.01,0.75-0.15,1.03c-0.14,0.29-0.36,0.52-0.66,0.7c-0.3,0.18-0.63,0.26-0.99,0.26c-0.36-0.01-0.71-0.12-1.05-0.34
					c-0.33-0.22-0.62-0.52-0.85-0.9c-0.3-0.49-0.47-0.94-0.53-1.35c-0.05-0.42,0.01-0.81,0.19-1.17
					C12.91,81.13,13.19,80.83,13.56,80.6z"/>
			</g>
			<g>
				<path class="st1" d="M22.84,86.38l0.51,0.66l-3.02,2.25c-0.53,0.39-0.98,0.64-1.38,0.76c-0.4,0.12-0.8,0.1-1.23-0.06
					c-0.42-0.15-0.82-0.47-1.19-0.95c-0.36-0.47-0.57-0.91-0.63-1.34c-0.06-0.42,0.02-0.82,0.24-1.18c0.22-0.36,0.61-0.75,1.16-1.17
					l3.02-2.25l0.51,0.66l-3.01,2.24c-0.45,0.34-0.76,0.63-0.91,0.87c-0.15,0.24-0.21,0.5-0.18,0.79s0.16,0.57,0.38,0.85
					c0.37,0.49,0.76,0.75,1.14,0.78c0.39,0.04,0.91-0.19,1.57-0.68L22.84,86.38z"/>
			</g>
			<g>
				<path class="st1" d="M20.45,90.45l0.6,0.52c-0.21,0.25-0.35,0.49-0.4,0.73c-0.06,0.24-0.03,0.51,0.07,0.8
					c0.11,0.29,0.28,0.57,0.53,0.83c0.22,0.23,0.45,0.4,0.69,0.51c0.24,0.11,0.47,0.15,0.67,0.12c0.21-0.03,0.38-0.11,0.53-0.25
					c0.15-0.14,0.24-0.3,0.27-0.49c0.03-0.19-0.01-0.41-0.12-0.67c-0.07-0.17-0.25-0.51-0.55-1.03c-0.3-0.51-0.48-0.9-0.55-1.15
					c-0.09-0.33-0.1-0.63-0.03-0.9c0.07-0.27,0.22-0.51,0.44-0.71c0.24-0.22,0.53-0.37,0.86-0.43c0.33-0.06,0.68-0.02,1.03,0.13
					c0.35,0.15,0.67,0.38,0.97,0.68c0.33,0.34,0.56,0.69,0.69,1.05c0.14,0.36,0.16,0.72,0.07,1.06c-0.09,0.34-0.26,0.65-0.53,0.92
					l-0.6-0.53c0.27-0.31,0.4-0.63,0.38-0.95c-0.02-0.32-0.2-0.66-0.53-1.01c-0.35-0.36-0.68-0.56-0.98-0.6
					c-0.3-0.04-0.55,0.04-0.74,0.22c-0.17,0.16-0.25,0.35-0.25,0.57c0,0.22,0.18,0.63,0.54,1.22c0.36,0.6,0.58,1.03,0.67,1.29
					c0.13,0.38,0.16,0.73,0.08,1.04c-0.07,0.31-0.24,0.58-0.49,0.82c-0.25,0.24-0.56,0.39-0.91,0.46c-0.36,0.07-0.72,0.03-1.1-0.11
					c-0.38-0.14-0.72-0.38-1.03-0.7c-0.4-0.41-0.67-0.81-0.81-1.21c-0.14-0.4-0.17-0.79-0.07-1.18
					C19.94,91.1,20.14,90.75,20.45,90.45z"/>
			</g>
			<g>
				<path class="st1" d="M24.6,97.35l3.72-4.34l-1.6-1.33l0.5-0.58l3.86,3.2l-0.5,0.58l-1.61-1.34l-3.72,4.35L24.6,97.35z"/>
			</g>
			<g>
				<path class="st1" d="M26.51,99l5.71-3.97l0.75,0.5l-1.54,6.77l-0.79-0.53l0.5-2.02l-2.2-1.48l-1.7,1.22L26.51,99z M29.55,97.83
					l1.78,1.2l0.47-1.84c0.14-0.56,0.27-1.01,0.39-1.35c-0.3,0.3-0.63,0.57-0.99,0.83L29.55,97.83z"/>
			</g>
			<g>
				<path class="st1" d="M32.24,102.67l3.21-5.62l0.74,0.41l-3.21,5.62L32.24,102.67z"/>
			</g>
			<g>
				<path class="st1" d="M34.31,103.84l2.66-5.89l0.79,0.35l0.97,5.96l2.09-4.62l0.74,0.32l-2.66,5.89l-0.79-0.35l-0.97-5.96
					l-2.09,4.63L34.31,103.84z"/>
			</g>
			<g>
				<path class="st1" d="M39.74,106.18l4.19-5.5l0.87,0.25l0.66,6.9l-0.92-0.27l-0.15-2.08l-2.56-0.74l-1.23,1.68L39.74,106.18z
					 M42.26,104.16l2.07,0.6l-0.13-1.9c-0.04-0.58-0.06-1.04-0.05-1.41c-0.2,0.37-0.42,0.74-0.68,1.09L42.26,104.16z"/>
			</g>
			<g>
				<path class="st1" d="M46.3,107.98l1.03-6.36l2.36,0.37c0.48,0.08,0.86,0.2,1.12,0.38c0.27,0.17,0.46,0.41,0.59,0.7
					c0.12,0.29,0.16,0.59,0.11,0.88c-0.04,0.27-0.16,0.52-0.34,0.73c-0.18,0.22-0.44,0.38-0.76,0.48c0.36,0.17,0.62,0.41,0.78,0.72
					c0.16,0.3,0.21,0.64,0.15,1.01c-0.05,0.3-0.16,0.56-0.32,0.8c-0.17,0.24-0.35,0.41-0.56,0.52c-0.21,0.11-0.45,0.18-0.74,0.21
					c-0.29,0.03-0.63,0.01-1.03-0.05L46.3,107.98z M47.25,107.36l1.57,0.25c0.27,0.04,0.46,0.06,0.57,0.06c0.2,0,0.37-0.04,0.51-0.1
					c0.14-0.06,0.27-0.16,0.38-0.3c0.11-0.14,0.18-0.31,0.21-0.52c0.04-0.24,0.01-0.45-0.08-0.65c-0.09-0.19-0.24-0.34-0.44-0.45
					c-0.2-0.1-0.5-0.19-0.9-0.25l-1.45-0.23L47.25,107.36z M47.73,104.42l1.36,0.21c0.37,0.06,0.64,0.08,0.81,0.05
					c0.22-0.03,0.4-0.11,0.53-0.24c0.13-0.13,0.22-0.31,0.25-0.53c0.03-0.21,0.01-0.4-0.06-0.58c-0.07-0.18-0.2-0.31-0.38-0.4
					c-0.18-0.09-0.49-0.17-0.94-0.24l-1.26-0.2L47.73,104.42z"/>
			</g>
			<g>
				<path class="st1" d="M52.3,108.82l0.3-6.44l0.84,0.04l-0.26,5.68l3.14,0.14L56.28,109L52.3,108.82z"/>
			</g>
			<g>
				<path class="st1" d="M57.41,108.99l-0.43-6.43l4.6-0.3l0.05,0.76l-3.76,0.24l0.13,1.97l3.52-0.23l0.05,0.75l-3.52,0.23
					l0.15,2.19l3.9-0.25l0.05,0.76L57.41,108.99z"/>
			</g>
			<g>
				<path class="st1" d="M65.86,108.12l-1.54-6.26l2.13-0.51c0.48-0.11,0.86-0.17,1.13-0.17c0.38,0,0.71,0.08,1.02,0.23
					c0.4,0.2,0.73,0.5,1,0.9c0.27,0.4,0.47,0.87,0.61,1.43c0.12,0.48,0.17,0.91,0.15,1.3c-0.02,0.39-0.09,0.73-0.2,1.01
					c-0.11,0.28-0.25,0.52-0.42,0.7c-0.17,0.19-0.39,0.35-0.66,0.49c-0.27,0.14-0.59,0.25-0.97,0.34L65.86,108.12z M66.5,107.19
					l1.32-0.32c0.41-0.1,0.72-0.21,0.93-0.34c0.21-0.13,0.37-0.28,0.48-0.46c0.15-0.24,0.23-0.54,0.26-0.9
					c0.03-0.36-0.02-0.77-0.13-1.25c-0.16-0.66-0.39-1.13-0.69-1.43c-0.3-0.3-0.62-0.48-0.95-0.52c-0.24-0.03-0.6,0.01-1.09,0.12
					l-1.3,0.31L66.5,107.19z"/>
			</g>
			<g>
				<path class="st1" d="M72.23,106.49l-2.3-6.03l4.31-1.59l0.27,0.71l-3.53,1.3l0.7,1.85l3.3-1.22l0.27,0.71l-3.3,1.22l0.78,2.05
					l3.66-1.35l0.27,0.71L72.23,106.49z"/>
			</g>
			<g>
				<path class="st1" d="M79.49,103.5l-5.18-4.63l0.81-0.41l3.64,3.42c0.29,0.27,0.55,0.54,0.79,0.79
					c-0.08-0.36-0.14-0.72-0.18-1.09l-0.64-4.94l0.77-0.39l0.77,6.85L79.49,103.5z"/>
			</g>
			<g>
				<path class="st1" d="M83.27,101.5l-3.63-5.36l3.83-2.52l0.43,0.63l-3.13,2.05l1.11,1.64l2.93-1.92l0.43,0.63l-2.93,1.92
					l1.24,1.82l3.25-2.13l0.43,0.63L83.27,101.5z"/>
			</g>
			<g>
				<path class="st1" d="M88.17,98.17L84,93.21l0.65-0.53l3.68,4.38l2.42-1.97l0.49,0.59L88.17,98.17z"/>
			</g>
			<g>
				<path class="st1" d="M89.63,92.93c-0.78-0.74-1.2-1.52-1.25-2.34c-0.05-0.82,0.24-1.55,0.86-2.19c0.41-0.42,0.88-0.7,1.42-0.83
					c0.53-0.14,1.07-0.12,1.62,0.06c0.54,0.18,1.05,0.49,1.53,0.93c0.48,0.45,0.82,0.95,1.01,1.49c0.2,0.54,0.23,1.07,0.09,1.6
					c-0.14,0.52-0.4,0.98-0.78,1.37c-0.42,0.43-0.9,0.7-1.44,0.84c-0.54,0.13-1.08,0.11-1.62-0.07
					C90.52,93.6,90.05,93.32,89.63,92.93z M90.24,92.32c0.57,0.54,1.16,0.82,1.77,0.83c0.61,0.02,1.14-0.2,1.57-0.64
					c0.44-0.45,0.64-0.98,0.59-1.58c-0.05-0.6-0.37-1.19-0.98-1.77c-0.39-0.36-0.78-0.62-1.19-0.77c-0.41-0.15-0.81-0.17-1.2-0.08
					c-0.39,0.09-0.73,0.28-1.02,0.58c-0.41,0.42-0.62,0.93-0.61,1.52C89.17,91.02,89.53,91.65,90.24,92.32z"/>
			</g>
			<g>
				<path class="st1" d="M96.93,89.81l-5.24-3.86l1.44-1.89c0.25-0.33,0.46-0.58,0.63-0.73c0.23-0.21,0.47-0.36,0.72-0.44
					c0.25-0.08,0.52-0.09,0.81-0.03c0.29,0.06,0.57,0.18,0.83,0.38c0.45,0.33,0.72,0.74,0.82,1.24c0.1,0.5-0.12,1.1-0.66,1.81
					l-0.98,1.29l2.13,1.57L96.93,89.81z M94.68,87.12l0.99-1.3c0.33-0.43,0.48-0.79,0.45-1.1c-0.03-0.3-0.2-0.57-0.5-0.79
					c-0.22-0.16-0.45-0.25-0.68-0.26c-0.24-0.01-0.45,0.05-0.63,0.19c-0.12,0.09-0.29,0.28-0.52,0.58l-0.98,1.28L94.68,87.12z"/>
			</g>
			<g>
				<path class="st1" d="M100.54,84.99l-5.69-3.19l0.63-1.09l4.77,0.97c0.44,0.09,0.78,0.16,0.99,0.21
					c-0.17-0.18-0.42-0.45-0.74-0.8l-3.2-3.52l0.56-0.97l5.69,3.19l-0.4,0.69l-4.76-2.67l3.85,4.25l-0.38,0.65l-5.76-1.14l4.84,2.71
					L100.54,84.99z"/>
			</g>
			<g>
				<path class="st1" d="M104.18,78.4l-6.04-2.48l1.77-4.18l0.71,0.29l-1.45,3.42l1.85,0.76l1.36-3.2l0.71,0.29l-1.36,3.2l2.06,0.84
					l1.51-3.55l0.71,0.29L104.18,78.4z"/>
			</g>
			<g>
				<path class="st1" d="M106.43,72.92l-6.28-1.82l0.24-0.82l5.88-1.73l-4.93-1.43l0.23-0.76l6.28,1.82l-0.24,0.82l-5.88,1.73
					l4.94,1.43L106.43,72.92z"/>
			</g>
			<g>
				<path class="st1" d="M108.49,65.14l-5.67-1.05l-0.39,2.03l-0.76-0.14l0.94-4.88l0.76,0.14l-0.39,2.04l5.67,1.05L108.49,65.14z"
					/>
			</g>
		</g>
	</g>
</g>
</svg>
